<?xml version="1.0" encoding="UTF-8" standalone="no"?>
<!DOCTYPE svg PUBLIC "-//W3C//DTD SVG 1.1//EN"
 "http://www.w3.org/Graphics/SVG/1.1/DTD/svg11.dtd">
<!-- Generated by graphviz version 2.38.0 (20140413.2041)
 -->
<!-- Title: G Pages: 1 -->
<svg width="823pt" height="724pt"
 viewBox="0.00 0.00 823.06 724.00" xmlns="http://www.w3.org/2000/svg" xmlns:xlink="http://www.w3.org/1999/xlink">
<g id="graph0" class="graph" transform="scale(1 1) rotate(0) translate(4 720)">
<title>G</title>
<polygon fill="white" stroke="none" points="-4,4 -4,-720 819.06,-720 819.06,4 -4,4"/>
<g id="clust1" class="cluster"><title>cluster_Global</title>
<path fill="none" stroke="gray" d="M255.276,-152C255.276,-152 795.06,-152 795.06,-152 801.06,-152 807.06,-158 807.06,-164 807.06,-164 807.06,-696 807.06,-696 807.06,-702 801.06,-708 795.06,-708 795.06,-708 255.276,-708 255.276,-708 249.276,-708 243.276,-702 243.276,-696 243.276,-696 243.276,-164 243.276,-164 243.276,-158 249.276,-152 255.276,-152"/>
<text text-anchor="middle" x="525.168" y="-695.2" font-family="Times New Roman,serif" font-size="11.00" fill="gray">Global</text>
</g>
<g id="clust2" class="cluster"><title>cluster_\Battis</title>
<path fill="none" stroke="gray" d="M263.276,-160C263.276,-160 787.06,-160 787.06,-160 793.06,-160 799.06,-166 799.06,-172 799.06,-172 799.06,-668 799.06,-668 799.06,-674 793.06,-680 787.06,-680 787.06,-680 263.276,-680 263.276,-680 257.276,-680 251.276,-674 251.276,-668 251.276,-668 251.276,-172 251.276,-172 251.276,-166 257.276,-160 263.276,-160"/>
<text text-anchor="middle" x="525.168" y="-667.2" font-family="Times New Roman,serif" font-size="11.00" fill="gray">Battis</text>
</g>
<g id="clust3" class="cluster"><title>cluster_\Battis\RestfulAPI</title>
<path fill="none" stroke="gray" d="M271.276,-168C271.276,-168 779.06,-168 779.06,-168 785.06,-168 791.06,-174 791.06,-180 791.06,-180 791.06,-640 791.06,-640 791.06,-646 785.06,-652 779.06,-652 779.06,-652 271.276,-652 271.276,-652 265.276,-652 259.276,-646 259.276,-640 259.276,-640 259.276,-180 259.276,-180 259.276,-174 265.276,-168 271.276,-168"/>
<text text-anchor="middle" x="525.168" y="-639.2" font-family="Times New Roman,serif" font-size="11.00" fill="gray">RestfulAPI</text>
</g>
<g id="clust4" class="cluster"><title>cluster_\Battis\RestfulAPI\Middleware</title>
<path fill="none" stroke="gray" d="M598.06,-382C598.06,-382 771.06,-382 771.06,-382 777.06,-382 783.06,-388 783.06,-394 783.06,-394 783.06,-478 783.06,-478 783.06,-484 777.06,-490 771.06,-490 771.06,-490 598.06,-490 598.06,-490 592.06,-490 586.06,-484 586.06,-478 586.06,-478 586.06,-394 586.06,-394 586.06,-388 592.06,-382 598.06,-382"/>
<text text-anchor="middle" x="684.56" y="-477.2" font-family="Times New Roman,serif" font-size="11.00" fill="gray">Middleware</text>
</g>
<g id="clust5" class="cluster"><title>cluster_\Battis\RestfulAPI\Middleware\Application</title>
<path fill="none" stroke="gray" d="M606.06,-390C606.06,-390 763.06,-390 763.06,-390 769.06,-390 775.06,-396 775.06,-402 775.06,-402 775.06,-450 775.06,-450 775.06,-456 769.06,-462 763.06,-462 763.06,-462 606.06,-462 606.06,-462 600.06,-462 594.06,-456 594.06,-450 594.06,-450 594.06,-402 594.06,-402 594.06,-396 600.06,-390 606.06,-390"/>
<text text-anchor="middle" x="684.56" y="-449.2" font-family="Times New Roman,serif" font-size="11.00" fill="gray">Application</text>
</g>
<g id="clust6" class="cluster"><title>cluster_\Battis\RestfulAPI\Routing</title>
<path fill="none" stroke="gray" d="M599.06,-498C599.06,-498 770.06,-498 770.06,-498 776.06,-498 782.06,-504 782.06,-510 782.06,-510 782.06,-612 782.06,-612 782.06,-618 776.06,-624 770.06,-624 770.06,-624 599.06,-624 599.06,-624 593.06,-624 587.06,-618 587.06,-612 587.06,-612 587.06,-510 587.06,-510 587.06,-504 593.06,-498 599.06,-498"/>
<text text-anchor="middle" x="684.56" y="-611.2" font-family="Times New Roman,serif" font-size="11.00" fill="gray">Routing</text>
</g>
<!-- \\Battis\\RestfulAPI\\Middleware\\Application\\IncludeRestfulChildren -->
<g id="node1" class="node"><title>\\Battis\\RestfulAPI\\Middleware\\Application\\IncludeRestfulChildren</title>
<polygon fill="none" stroke="black" points="767.06,-434 602.06,-434 602.06,-398 767.06,-398 767.06,-434"/>
<text text-anchor="middle" x="684.56" y="-413.2" font-family="Courier,monospace" font-size="11.00">IncludeRestfulChildren</text>
</g>
<!-- \\Psr\\Http\\Server\\MiddlewareInterface -->
<g id="node9" class="node"><title>\\Psr\\Http\\Server\\MiddlewareInterface</title>
<ellipse fill="none" stroke="black" cx="339.776" cy="-126" rx="143.775" ry="18"/>
<text text-anchor="middle" x="339.776" y="-122.3" font-family="Times New Roman,serif" font-size="14.00" fill="gray">\PsrHttp\Server\MiddlewareInterface</text>
</g>
<!-- \\Battis\\RestfulAPI\\Middleware\\Application\\IncludeRestfulChildren&#45;&gt;\\Psr\\Http\\Server\\MiddlewareInterface -->
<g id="edge1" class="edge"><title>\\Battis\\RestfulAPI\\Middleware\\Application\\IncludeRestfulChildren&#45;&gt;\\Psr\\Http\\Server\\MiddlewareInterface</title>
<path fill="none" stroke="black" stroke-dasharray="1,5" d="M601.773,-404.984C596.039,-402.049 590.702,-398.436 586.06,-394 509.432,-320.777 600.285,-236.592 523.06,-164 510.36,-152.062 494.924,-143.467 478.467,-137.336"/>
<polygon fill="none" stroke="black" points="479.267,-133.912 468.673,-134.005 477.013,-140.539 479.267,-133.912"/>
</g>
<!-- \\Battis\\RestfulAPI\\Routing\\RestfulEndpointException -->
<g id="node2" class="node"><title>\\Battis\\RestfulAPI\\Routing\\RestfulEndpointException</title>
<polygon fill="none" stroke="black" points="774.06,-596 595.06,-596 595.06,-560 774.06,-560 774.06,-596"/>
<text text-anchor="middle" x="684.56" y="-575.2" font-family="Courier,monospace" font-size="11.00">RestfulEndpointException</text>
</g>
<!-- \\Battis\\RestfulAPI\\RestfulAPIException -->
<g id="node5" class="node"><title>\\Battis\\RestfulAPI\\RestfulAPIException</title>
<polygon fill="none" stroke="black" points="412.276,-596 267.276,-596 267.276,-560 412.276,-560 412.276,-596"/>
<text text-anchor="middle" x="339.776" y="-575.2" font-family="Courier,monospace" font-size="11.00">RestfulAPIException</text>
</g>
<!-- \\Battis\\RestfulAPI\\Routing\\RestfulEndpointException&#45;&gt;\\Battis\\RestfulAPI\\RestfulAPIException -->
<g id="edge5" class="edge"><title>\\Battis\\RestfulAPI\\Routing\\RestfulEndpointException&#45;&gt;\\Battis\\RestfulAPI\\RestfulAPIException</title>
<path fill="none" stroke="black" d="M594.839,-578C541.651,-578 474.495,-578 422.588,-578"/>
<polygon fill="none" stroke="black" points="422.418,-574.5 412.418,-578 422.418,-581.5 422.418,-574.5"/>
</g>
<!-- \\Battis\\RestfulAPI\\Routing\\RestfulEndpointProxy -->
<g id="node3" class="node"><title>\\Battis\\RestfulAPI\\Routing\\RestfulEndpointProxy</title>
<polygon fill="none" stroke="black" points="760.56,-542 608.56,-542 608.56,-506 760.56,-506 760.56,-542"/>
<text text-anchor="middle" x="684.56" y="-521.2" font-family="Courier,monospace" font-size="11.00">RestfulEndpointProxy</text>
</g>
<!-- \\Battis\\RestfulAPI\\RestfulAPI -->
<g id="node4" class="node"><title>\\Battis\\RestfulAPI\\RestfulAPI</title>
<polygon fill="none" stroke="black" points="726.56,-374 642.56,-374 642.56,-338 726.56,-338 726.56,-374"/>
<text text-anchor="middle" x="684.56" y="-353.2" font-family="Courier,monospace" font-size="11.00">RestfulAPI</text>
</g>
<!-- \\Exception -->
<g id="node10" class="node"><title>\\Exception</title>
<ellipse fill="none" stroke="black" cx="42.2463" cy="-578" rx="42.4939" ry="18"/>
<text text-anchor="middle" x="42.2463" y="-574.3" font-family="Times New Roman,serif" font-size="14.00" fill="gray">xception</text>
</g>
<!-- \\Battis\\RestfulAPI\\RestfulAPIException&#45;&gt;\\Exception -->
<g id="edge2" class="edge"><title>\\Battis\\RestfulAPI\\RestfulAPIException&#45;&gt;\\Exception</title>
<path fill="none" stroke="black" d="M267.237,-578C213.922,-578 142.376,-578 94.6357,-578"/>
<polygon fill="none" stroke="black" points="94.528,-574.5 84.5279,-578 94.5279,-581.5 94.528,-574.5"/>
</g>
<!-- \\Battis\\RestfulAPI\\RestfulObject -->
<g id="node6" class="node"><title>\\Battis\\RestfulAPI\\RestfulObject</title>
<polygon fill="none" stroke="black" points="736.56,-320 632.56,-320 632.56,-284 736.56,-284 736.56,-320"/>
<text text-anchor="start" x="650.56" y="-305.2" font-family="Courier,monospace" font-size="11.00">«abstract»</text>
<text text-anchor="start" x="640.56" y="-293.2" font-family="Courier,monospace" font-size="11.00">RestfulObject</text>
</g>
<!-- \\Battis\\PersistentObject\\PerUser\\PerUserObject -->
<g id="node11" class="node"><title>\\Battis\\PersistentObject\\PerUser\\PerUserObject</title>
<ellipse fill="none" stroke="black" cx="339.776" cy="-72" rx="183.068" ry="18"/>
<text text-anchor="middle" x="339.776" y="-68.3" font-family="Times New Roman,serif" font-size="14.00" fill="gray">\Battis\PersistentObject\PerUser\PerUserObject</text>
</g>
<!-- \\Battis\\RestfulAPI\\RestfulObject&#45;&gt;\\Battis\\PersistentObject\\PerUser\\PerUserObject -->
<g id="edge3" class="edge"><title>\\Battis\\RestfulAPI\\RestfulObject&#45;&gt;\\Battis\\PersistentObject\\PerUser\\PerUserObject</title>
<path fill="none" stroke="black" d="M632.396,-297.229C615.915,-293.418 598.671,-286.715 586.06,-275 525.19,-218.453 587.293,-151.696 523.06,-99 517.108,-94.1174 510.665,-89.9142 503.876,-86.3057"/>
<polygon fill="none" stroke="black" points="504.943,-82.9351 494.416,-81.7458 501.904,-89.2408 504.943,-82.9351"/>
</g>
<!-- \\Battis\\RestfulAPI\\RestfulUser -->
<g id="node7" class="node"><title>\\Battis\\RestfulAPI\\RestfulUser</title>
<polygon fill="none" stroke="black" points="730.06,-266 639.06,-266 639.06,-230 730.06,-230 730.06,-266"/>
<text text-anchor="middle" x="684.56" y="-245.2" font-family="Courier,monospace" font-size="11.00">RestfulUser</text>
</g>
<!-- \\Battis\\PersistentObject\\PerUser\\User -->
<g id="node12" class="node"><title>\\Battis\\PersistentObject\\PerUser\\User</title>
<ellipse fill="none" stroke="black" cx="339.776" cy="-18" rx="146.774" ry="18"/>
<text text-anchor="middle" x="339.776" y="-14.3" font-family="Times New Roman,serif" font-size="14.00" fill="gray">\Battis\PersistentObject\PerUser\User</text>
</g>
<!-- \\Battis\\RestfulAPI\\RestfulUser&#45;&gt;\\Battis\\PersistentObject\\PerUser\\User -->
<g id="edge4" class="edge"><title>\\Battis\\RestfulAPI\\RestfulUser&#45;&gt;\\Battis\\PersistentObject\\PerUser\\User</title>
<path fill="none" stroke="black" d="M638.902,-244.597C620.571,-241.108 600.344,-234.269 586.06,-221 525.19,-164.453 587.293,-97.696 523.06,-45 513.592,-37.2323 502.879,-31.184 491.506,-26.5145"/>
<polygon fill="none" stroke="black" points="492.403,-23.1139 481.81,-22.9089 489.963,-29.6749 492.403,-23.1139"/>
</g>
<!-- \\Battis\\RestfulAPI\\RestfulObjectTrait -->
<g id="node8" class="node"><title>\\Battis\\RestfulAPI\\RestfulObjectTrait</title>
<polygon fill="none" stroke="black" points="753.56,-212 615.56,-212 615.56,-176 753.56,-176 753.56,-212"/>
<text text-anchor="middle" x="684.56" y="-191.2" font-family="Courier,monospace" font-size="11.00">RestfulObjectTrait</text>
</g>
</g>
</svg>
